<svg width="150" height="24" viewBox="0 0 150 24" fill="none" xmlns="http://www.w3.org/2000/svg">
<path d="M20.6488 4.62172C21.1963 5.35224 21.6599 6.14588 22.03 6.98672L11.5299 14.9737L7.1416 12.1352V8.72029L11.5299 11.5588L20.6488 4.62172Z" fill="#21A038"/>
<path d="M2.66305 11.8942C2.66305 11.7409 2.66667 11.5887 2.67391 11.4374L0.0144837 11.3029C0.00543189 11.4991 3.2138e-06 11.6971 3.2138e-06 11.8969C-0.0011283 13.4585 0.296539 15.0049 0.875936 16.4475C1.45533 17.8901 2.30504 19.2004 3.37634 20.3033L5.26274 18.3577C4.43809 17.5103 3.7839 16.5029 3.33776 15.3937C2.89161 14.2844 2.66232 13.0951 2.66305 11.8942Z" fill="url(#paint0_linear_5_510)"/>
<path d="M11.5274 2.74725C11.6759 2.74725 11.8234 2.75286 11.97 2.76032L12.1031 0.0151709C11.9124 0.00583051 11.7205 0.00116086 11.5274 0.00116086C10.0134 -0.000744361 8.51393 0.30597 7.11511 0.903692C5.71629 1.50142 4.44568 2.37838 3.37622 3.48422L5.26262 5.43076C6.08397 4.57955 7.06029 3.90425 8.13543 3.44372C9.21057 2.98319 10.3633 2.74649 11.5274 2.74725Z" fill="url(#paint1_linear_5_510)"/>
<path d="M11.5275 21.0413C11.3791 21.0413 11.2315 21.0413 11.084 21.0292L10.9509 23.7734C11.1422 23.7833 11.3344 23.7884 11.5275 23.7884C13.0409 23.79 14.5396 23.4831 15.9377 22.8852C17.3358 22.2873 18.6056 21.4102 19.6742 20.3044L17.7914 18.3588C16.9699 19.2095 15.9937 19.8844 14.9188 20.3448C13.8439 20.8052 12.6914 21.0419 11.5275 21.0413Z" fill="url(#paint2_linear_5_510)"/>
<path d="M16.5242 4.34332L18.7654 2.63869C16.7169 0.927018 14.1599 -0.00475142 11.5239 1.82208e-05V2.74704C13.3089 2.74476 15.0524 3.30137 16.5242 4.34332Z" fill="url(#paint3_linear_5_510)"/>
<path d="M23.0542 11.8942C23.0556 11.1796 22.9951 10.4662 22.8731 9.7627L20.3921 11.6495C20.3921 11.7308 20.3921 11.812 20.3921 11.8942C20.3927 13.1722 20.1331 14.4361 19.6301 15.604C19.127 16.7719 18.3917 17.8176 17.4719 18.6735L19.2615 20.7144C20.4573 19.6004 21.4129 18.2396 22.0662 16.7202C22.7196 15.2007 23.0562 13.5565 23.0542 11.8942Z" fill="#21A038"/>
<path d="M11.5276 21.0413C10.289 21.0417 9.06407 20.7737 7.93214 20.2547C6.80027 19.7356 5.78663 18.977 4.95689 18.0281L2.97998 19.8737C4.05937 21.1079 5.37809 22.094 6.85062 22.7684C8.32314 23.4428 9.91657 23.7903 11.5276 23.7883V21.0413Z" fill="url(#paint4_linear_5_510)"/>
<path d="M5.58318 5.11484L3.79454 3.07395C2.5984 4.18768 1.64249 5.54841 0.988786 7.06789C0.335094 8.58735 -0.00178219 10.2316 7.09043e-06 11.8941H2.66306C2.66251 10.6161 2.92217 9.35222 3.42521 8.18437C3.92825 7.01655 4.66345 5.97077 5.58318 5.11484Z" fill="url(#paint5_linear_5_510)"/>
<path d="M66.5215 6.80206L69.8197 4.32307H58.7812V19.2196H69.8197V16.7407H61.931V12.9249H68.6604V10.4459H61.931V6.80206H66.5215Z" fill="#21A038"/>
<path d="M51.3537 10.1263H47.5214V6.80107H53.6376L56.9338 4.31454H44.3735V19.2111H50.9483C54.6345 19.2111 56.75 17.5067 56.75 14.5342C56.75 11.6905 54.8338 10.1263 51.3537 10.1263ZM50.8065 16.7313H47.5214V12.6037H50.8065C52.8003 12.6037 53.735 13.2954 53.735 14.6676C53.735 16.0396 52.7404 16.7313 50.8065 16.7313Z" fill="#21A038"/>
<path d="M77.9336 4.32093H71.925V19.2175H75.0743V14.9975H77.9336C81.7672 14.9975 84.1386 12.9396 84.1386 9.65127C84.1386 6.36308 81.7672 4.32093 77.9336 4.32093ZM77.8672 12.5167H75.0743V6.80181H77.8672C79.8836 6.80181 80.9965 7.81724 80.9965 9.66036C80.9965 11.5035 79.8836 12.5167 77.8672 12.5167Z" fill="#21A038"/>
<path d="M39.6475 15.702C38.8339 16.1514 37.9224 16.3841 36.9974 16.3786C34.2285 16.3786 32.2199 14.362 32.2199 11.585C32.2199 8.808 34.2285 6.78698 36.9974 6.78698C37.9959 6.76967 38.9736 7.07857 39.7879 7.66858L41.9909 6.01338L41.8419 5.90539C40.5568 4.75272 38.8397 4.14223 36.8743 4.14223C34.7425 4.14223 32.8095 4.87394 31.4294 6.20513C30.7315 6.89054 30.1796 7.71535 29.808 8.62807C29.4364 9.5408 29.2531 10.5218 29.2696 11.51C29.2548 12.5083 29.4373 13.4993 29.8061 14.4241C30.175 15.3488 30.7226 16.1881 31.4164 16.8921C32.803 18.2762 34.7317 19.0388 36.8484 19.0388C39.06 19.0388 40.9931 18.2519 42.3019 16.8194L40.33 15.3207L39.6475 15.702Z" fill="#21A038"/>
<path d="M96.6265 10.1263H92.7958V6.80107H101.028V4.31454H89.6458V19.2111H96.2122C99.8979 19.2111 102.014 17.5067 102.014 14.5342C102.022 11.6905 100.106 10.1263 96.6265 10.1263ZM96.0793 16.7313H92.7958V12.6037H96.0793C98.0729 12.6037 99.0072 13.2954 99.0072 14.6676C99.0072 16.0396 98.0215 16.7313 96.0793 16.7313Z" fill="#21A038"/>
<path d="M137.819 19.1898H134.626V4.29324H137.819V10.5499H139.557L144.25 4.29324H147.869L142.302 11.3797L148.766 19.1898H144.529L139.779 13.3311H137.819V19.1898Z" fill="#21A038"/>
<path d="M113.614 16.3588H106.859L105.714 19.2516H102.316L108.651 4.35503H112.049L118.281 19.2516H114.759L113.614 16.3588ZM112.556 13.6597L110.256 7.87418L107.944 13.6597H112.556Z" fill="#21A038"/>
<path d="M122.579 4.35503V10.5756H129.186V4.35503H132.479V19.2516H129.186V13.3818H122.579V19.2516H119.287V4.35503H122.579Z" fill="#21A038"/>
<defs>
<linearGradient id="paint0_linear_5_510" x1="3.91492" y1="19.9606" x2="0.838483" y2="11.342" gradientUnits="userSpaceOnUse">
<stop offset="0.14" stop-color="#F1E813"/>
<stop offset="0.3" stop-color="#E6E418"/>
<stop offset="0.58" stop-color="#C9DA26"/>
<stop offset="0.89" stop-color="#A2CC39"/>
</linearGradient>
<linearGradient id="paint1_linear_5_510" x1="4.13657" y1="3.96992" x2="11.6888" y2="1.18078" gradientUnits="userSpaceOnUse">
<stop offset="0.06" stop-color="#0FA7DF"/>
<stop offset="0.54" stop-color="#0098F8"/>
<stop offset="0.92" stop-color="#0290EA"/>
</linearGradient>
<linearGradient id="paint2_linear_5_510" x1="10.7754" y1="22.1304" x2="19.2747" y2="20.2696" gradientUnits="userSpaceOnUse">
<stop offset="0.12" stop-color="#A2CC39"/>
<stop offset="0.28" stop-color="#86C239"/>
<stop offset="0.87" stop-color="#219F38"/>
</linearGradient>
<linearGradient id="paint3_linear_5_510" x1="10.97" y1="0.920051" x2="18.2536" y2="3.09829" gradientUnits="userSpaceOnUse">
<stop offset="0.06" stop-color="#0290EA"/>
<stop offset="0.79" stop-color="#0C89CA"/>
</linearGradient>
<linearGradient id="paint4_linear_5_510" x1="3.648" y1="19.5393" x2="11.5932" y2="22.417" gradientUnits="userSpaceOnUse">
<stop offset="0.13" stop-color="#F1E813"/>
<stop offset="0.3" stop-color="#EAE616"/>
<stop offset="0.53" stop-color="#D8DF1F"/>
<stop offset="0.8" stop-color="#BAD52D"/>
<stop offset="0.98" stop-color="#A2CC39"/>
</linearGradient>
<linearGradient id="paint5_linear_5_510" x1="0.992086" y1="12.2266" x2="4.33471" y2="3.79994" gradientUnits="userSpaceOnUse">
<stop offset="0.07" stop-color="#A2CC39"/>
<stop offset="0.26" stop-color="#81C45E"/>
<stop offset="0.92" stop-color="#0FA7DF"/>
</linearGradient>
</defs>
</svg>
