<svg width="40" height="40" viewBox="0 0 40 40" fill="none" xmlns="http://www.w3.org/2000/svg">
<path d="M33.1522 33.1522C33.6989 33.6989 34.5895 33.702 35.0967 33.1183C36.5088 31.4932 37.6514 29.6484 38.4776 27.6537C39.4827 25.2272 40 22.6264 40 20C40 17.3736 39.4827 14.7728 38.4776 12.3463C37.6514 10.3516 36.5088 8.50676 35.0967 6.88165C34.5895 6.29802 33.6989 6.30108 33.1522 6.84781C32.6054 7.39455 32.6104 8.27752 33.1108 8.8669C34.2666 10.228 35.2052 11.7629 35.8907 13.4178C36.7551 15.5046 37.2 17.7413 37.2 20C37.2 22.2587 36.7551 24.4954 35.8907 26.5822C35.2052 28.2371 34.2666 29.772 33.1108 31.1331C32.6104 31.7225 32.6055 32.6055 33.1522 33.1522Z" fill="white"/>
<path d="M29.652 29.652C30.1792 30.1792 31.0393 30.1828 31.517 29.6104C32.4869 28.4481 33.2769 27.1436 33.8582 25.7403C34.612 23.9204 35 21.9698 35 20C35 18.0302 34.612 16.0796 33.8582 14.2597C33.2769 12.8564 32.4869 11.5519 31.517 10.3896C31.0393 9.81718 30.1792 9.82078 29.652 10.348C29.1248 10.8752 29.1315 11.7258 29.5978 12.3076C30.3231 13.2126 30.9182 14.2174 31.3637 15.293C31.9819 16.7853 32.3 18.3847 32.3 20C32.3 21.6153 31.9819 23.2147 31.3637 24.707C30.9182 25.7826 30.3231 26.7874 29.5978 27.6924C29.1315 28.2742 29.1248 29.1248 29.652 29.652Z" fill="white"/>
<path d="M26.1518 26.1518C26.6595 26.6595 27.4905 26.664 27.9281 26.0947C28.4614 25.401 28.9025 24.6387 29.2388 23.8268C29.7413 22.6136 30 21.3132 30 20C30 18.6868 29.7413 17.3864 29.2388 16.1732C28.9025 15.3613 28.4614 14.599 27.9281 13.9053C27.4905 13.336 26.6595 13.3405 26.1518 13.8482C25.6441 14.3559 25.6554 15.1739 26.0666 15.7625C26.3727 16.2007 26.6312 16.6719 26.8367 17.1681C27.2086 18.066 27.4 19.0282 27.4 20C27.4 20.9718 27.2086 21.934 26.8367 22.8319C26.6312 23.3281 26.3727 23.7993 26.0666 24.2375C25.6554 24.8261 25.6441 25.6441 26.1518 26.1518Z" fill="white"/>
<path d="M22.8284 22.8284C23.219 23.219 23.8623 23.223 24.1675 22.7627C24.3446 22.4954 24.4961 22.2111 24.6194 21.9134C24.8707 21.3068 25 20.6566 25 20C25 19.3434 24.8707 18.6932 24.6194 18.0866C24.4961 17.7889 24.3446 17.5046 24.1675 17.2373C23.8623 16.777 23.219 16.781 22.8284 17.1716C22.4379 17.5621 22.4574 18.1927 22.6986 18.6895C22.7245 18.7429 22.7489 18.797 22.7716 18.8519C22.9224 19.2159 23 19.606 23 20C23 20.394 22.9224 20.7841 22.7716 21.1481C22.7489 21.203 22.7245 21.2571 22.6986 21.3105C22.4574 21.8073 22.4379 22.4379 22.8284 22.8284Z" fill="white"/>
</svg>
